PathFileType	4	(X/Y/Z)	C:/Users/opensim2020/Desktop/walking_exp_matlab/subject02_walking08_straight_01.trc																																																																																																																									
DataRate	CameraRate	NumFrames	NumMarkers	Units	OrigDataRate	OrigDataStartFrame	OrigNumFrames																																																																																																																					
100	100	4	41	mm	100	559	324																																																																																																																					
Frame#	Time	LFHD			RFHD			LBHD			RBHD			C7			T10			CLAV			STRN			RBAK			LSHO			LUPA			LELB			LFRM			LWRA			LWRB			LFIN			RSHO			RUPA			RELB			RFRM			RWRA			RWRB			RFIN			LASI			RASI			LPSI			RPSI			LTHI			LKNE			LTIB			LANK			LHEE			LTOE			RTHI			RKNE			RTIB			RANK			RHEE			RTOE			*39			*40		
		X1	Y1	Z1	X2	Y2	Z2	X3	Y3	Z3	X4	Y4	Z4	X5	Y5	Z5	X6	Y6	Z6	X7	Y7	Z7	X8	Y8	Z8	X9	Y9	Z9	X10	Y10	Z10	X11	Y11	Z11	X12	Y12	Z12	X13	Y13	Z13	X14	Y14	Z14	X15	Y15	Z15	X16	Y16	Z16	X17	Y17	Z17	X18	Y18	Z18	X19	Y19	Z19	X20	Y20	Z20	X21	Y21	Z21	X22	Y22	Z22	X23	Y23	Z23	X24	Y24	Z24	X25	Y25	Z25	X26	Y26	Z26	X27	Y27	Z27	X28	Y28	Z28	X29	Y29	Z29	X30	Y30	Z30	X31	Y31	Z31	X32	Y32	Z32	X33	Y33	Z33	X34	Y34	Z34	X35	Y35	Z35	X36	Y36	Z36	X37	Y37	Z37	X38	Y38	Z38	X39	Y39	Z39	X40	Y40	Z40	X41	Y41	Z41
																																																																																																																												
1	0	-1243.83594	1738.30444	-974.58368	-1254.46655	1705.3717	-831.0799	-1358.33411	1647.77087	-1002.40973	-1384.23523	1611.60779	-865.59631	-1412.2832	1513.15479	-942.11627	-1478.08826	1239.63086	-940.37189	-1278.82837	1439.41016	-958.68622	-1236.0188	1264.09534	-965.04309	-1477.26501	1339.36218	-883.84912	-1342.13599	1492.93372	-1126.29956	-1343.85217	1293.0752	-1213.79895	-1330.27014	1147.78625	-1219.83777	-1284.96411	1021.76788	-1215.09253	-1211.14331	919.7373	-1148.91809	-1239.7124	907.66937	-1197.24719	-1208.88098	849.43475	-1179.40015	-1329.44019	1461.86072	-760.00299	-1373.25989	1271.81384	-683.46594	-1373.70667	1125.19934	-669.95624	-1352.05591	1006.79651	-652.47906	-1308.78601	878.19525	-673.99561	-1356.79944	876.62378	-642.67194	-1322.64148	811.42957	-641.90894	-1282.53247	965.40778	-1099.37463	-1234.23315	968.34131	-849.89459	-1472.02063	1018.70911	-985.75946	-1456.91455	1021.87335	-870.93738	-1410.73877	663.12738	-1143.31677	-1467.95227	477.17041	-1119.57434	-1606.71765	346.00137	-1090.17358	-1709.26404	148.02618	-1052.0127	-1729.052	138.47949	-989.29852	-1619.46472	28.20384	-1104.69214	-1249.53101	669.31177	-774.4046	-1219.55188	463.89542	-822.73633	-1242.79346	276.11008	-812.67798	-1254.54736	84.47549	-848.20911	-1294.49573	30.7277	-900.59607	-1101.03906	33.24483	-854.37207	-1360.48877	1779.15759	-888.284	2845.24463	1033.93884	-3360.43921
2	0.01	-1238.63281	1739.56335	-973.01465	-1249.27466	1706.95837	-829.52051	-1352.86633	1648.68066	-1000.75391	-1378.5719	1612.61035	-863.91602	-1406.32959	1514.01843	-940.50037	-1471.22473	1240.22156	-938.25867	-1272.62842	1440.75134	-956.82477	-1229.17065	1265.448	-962.37701	-1470.60388	1339.68298	-882.0448	-1336.27844	1494.08228	-1124.49133	-1337.74927	1294.10132	-1211.75732	-1322.3031	1148.27808	-1216.39575	-1276.48999	1023.0694	-1211.87085	-1202.32788	922.36261	-1143.90784	-1230.04346	909.72021	-1192.41382	-1199.16284	851.63007	-1173.52405	-1324.2002	1463.48706	-758.3537	-1366.79492	1273.34375	-681.43958	-1366.33301	1126.69324	-668.01019	-1344.78442	1008.30359	-650.7829	-1302.1283	879.71936	-672.46429	-1349.73059	878.1698	-640.76062	-1315.8009	812.78992	-640.26392	-1275.62952	967.0329	-1096.98499	-1226.96045	968.62604	-847.92865	-1464.99658	1019.71899	-983.8028	-1449.4032	1023.14417	-868.87183	-1400.53674	663.37726	-1143.67297	-1454.94189	477.57895	-1121.79248	-1594.92969	348.60144	-1092.46387	-1701.16614	153.17497	-1053.67126	-1720.9447	143.87343	-990.0921	-1615.91602	30.4988	-1104.37158	-1244.66943	669.6698	-772.66852	-1217.10291	463.56143	-821.29645	-1241.39612	275.87836	-811.70258	-1254.39026	84.38765	-847.9873	-1294.49768	30.65992	-900.49524	-1101.11316	33.12846	-854.20544	-1355.38171	1780.33411	-886.96332	2845.24976	1033.91626	-3360.42578
3	0.02	-1234.77527	1741.04382	-974.13477	-1244.01868	1708.04773	-828.13922	-1347.42798	1649.44482	-999.12103	-1373.07642	1613.55359	-862.25098	-1400.46851	1514.82947	-938.8916	-1464.53467	1240.79712	-936.07422	-1266.53186	1442.08936	-955.11261	-1222.46423	1266.90845	-960.52264	-1464.16528	1340.27161	-880.21124	-1330.62634	1495.14575	-1122.64136	-1331.64734	1294.95203	-1209.51221	-1314.94946	1148.88562	-1213.80176	-1268.16162	1024.55237	-1208.62573	-1194.11121	925.01984	-1138.56494	-1220.57483	911.78961	-1188.37634	-1189.41016	853.79608	-1168.1803	-1317.59802	1465.01904	-756.70044	-1360.19751	1274.78345	-679.51691	-1358.72705	1128.03186	-666.21918	-1337.34778	1009.84167	-648.99103	-1294.71289	880.91681	-670.75354	-1342.39429	879.57355	-638.8136	-1308.52576	814.10486	-638.55963	-1267.68872	968.60822	-1094.79089	-1219.82056	968.94928	-846.20068	-1458.10852	1020.68579	-981.8866	-1442.23511	1024.49561	-866.85828	-1390.10571	663.36243	-1144.08801	-1441.64197	477.45267	-1123.98877	-1582.73279	350.89874	-1094.74829	-1692.57178	157.8661	-1054.6875	-1712.26904	149.27914	-991.25177	-1610.09302	34.01503	-1105.96765	-1239.81616	669.93109	-770.90753	-1215.11536	463.27383	-819.82568	-1240.34509	275.76306	-810.58636	-1254.38098	84.32818	-847.71082	-1294.52563	30.55721	-900.42798	-1101.21753	33.05035	-854.00641	-1350.41479	1781.32263	-885.64136	2845.15063	1034.07581	-3360.26294
4	0.03	-1228.62573	1741.94543	-970.56769	-1239.04602	1709.36621	-826.60046	-1342.03003	1650.08777	-997.59119	-1367.61963	1614.36584	-860.67761	-1394.6499	1515.59521	-937.29095	-1457.99902	1241.37952	-933.96063	-1260.51807	1443.16467	-953.35065	-1215.82983	1268.17114	-958.67676	-1457.96399	1341.12341	-878.40485	-1325.01563	1496.09033	-1120.89832	-1325.51453	1295.76611	-1207.37158	-1309.4668	1150.61194	-1213.03674	-1260.05005	1026.24817	-1205.16711	-1185.2677	927.65558	-1134.42993	-1211.21704	913.90747	-1184.07385	-1179.71802	856.22034	-1163.40112	-1312.04956	1466.25867	-755.21301	-1353.59912	1276.03687	-677.53424	-1351.32788	1129.26904	-664.38831	-1329.87305	1011.06531	-647.20544	-1287.45618	882.04987	-669.06061	-1334.75708	880.93109	-636.81116	-1300.97888	815.39294	-636.76788	-1260.7594	970.11041	-1093.09729	-1213.0564	969.37274	-844.70624	-1451.3772	1021.46832	-980.07086	-1435.30591	1025.73523	-865.08325	-1379.57166	663.12708	-1144.60791	-1428.37024	477.41824	-1126.09094	-1570.46716	353.009	-1096.98572	-1683.32751	162.12358	-1055.60754	-1702.98413	153.20605	-992.10443	-1602.00879	38.91857	-1108.70862	-1235.74915	670.12921	-769.19525	-1213.33972	462.98404	-818.3725	-1239.72473	275.5983	-809.7724	-1254.4552	84.25813	-847.41083	-1294.68933	30.56362	-900.27551	-1101.39307	32.99932	-853.79974	-1345.58667	1782.15491	-884.36383	2845.08447	1033.91418	-3360.09229
